<svg width="512" height="512" viewBox="0 0 512 512" fill="none" xmlns="http://www.w3.org/2000/svg">
<g clip-path="url(#clip0_106_98)">
<rect width="512" height="512" fill="white"/>
<rect x="13.6533" y="8.17383" width="484.693" height="241.7" rx="45.238" fill="#ED3430"/>
<rect x="13.6533" y="263.491" width="484.693" height="241.7" rx="45.238" fill="#154478"/>
<circle cx="255.317" cy="256.683" r="39.5947" fill="white"/>
<rect x="232.107" y="236.203" width="47.7867" height="10.9227" rx="2.73067" fill="black"/>
<rect x="232.107" y="251.221" width="47.7867" height="10.9227" rx="2.73067" fill="black"/>
<rect x="232.107" y="266.24" width="47.7867" height="10.9227" rx="2.73067" fill="black"/>
<path d="M255.754 323.042C272.4 323.042 284.918 328.416 293.306 339.164C301.826 349.781 306.086 367.017 306.086 390.872C306.086 402.799 305.037 412.957 302.94 421.346C300.843 429.735 297.697 436.616 293.503 441.99C289.309 447.364 284.066 451.296 277.774 453.786C271.483 456.277 264.143 457.522 255.754 457.522C247.366 457.522 240.026 456.277 233.734 453.786C227.443 451.296 222.2 447.364 218.005 441.99C213.811 436.616 210.665 429.735 208.568 421.346C206.471 412.957 205.423 402.799 205.423 390.872C205.423 382.09 206.078 373.636 207.389 365.509C208.83 357.252 211.386 349.977 215.056 343.686C218.857 337.394 223.969 332.414 230.392 328.744C236.945 324.943 245.4 323.042 255.754 323.042ZM278.168 390.282C278.168 374.16 276.464 362.822 273.056 356.269C269.779 349.846 264.077 346.635 255.951 346.635C251.888 346.635 248.414 347.421 245.531 348.994C242.778 350.567 240.484 353.058 238.649 356.465C236.814 359.873 235.438 364.395 234.521 370.031C233.734 375.536 233.341 382.352 233.341 390.479C233.341 398.474 233.734 405.29 234.521 410.926C235.438 416.431 236.814 420.887 238.649 424.295C240.484 427.703 242.844 430.193 245.727 431.766C248.611 433.208 252.019 433.929 255.951 433.929C264.077 433.929 269.779 430.718 273.056 424.295C276.464 417.742 278.168 406.404 278.168 390.282Z" fill="white"/>
<path d="M255.754 45.8794C272.4 45.8794 284.918 51.2534 293.306 62.0013C301.826 72.6181 306.086 89.8541 306.086 113.709C306.086 125.637 305.037 135.795 302.94 144.183C300.843 152.572 297.697 159.453 293.503 164.827C289.309 170.201 284.066 174.133 277.774 176.624C271.483 179.114 264.143 180.359 255.754 180.359C247.366 180.359 240.026 179.114 233.734 176.624C227.443 174.133 222.2 170.201 218.005 164.827C213.811 159.453 210.665 152.572 208.568 144.183C206.471 135.795 205.423 125.637 205.423 113.709C205.423 104.927 206.078 96.4732 207.389 88.3467C208.83 80.0892 211.386 72.8147 215.056 66.5233C218.857 60.2318 223.969 55.2511 230.392 51.5811C236.945 47.78 245.4 45.8794 255.754 45.8794ZM278.168 113.119C278.168 96.9975 276.464 85.6598 273.056 79.1062C269.779 72.6836 264.077 69.4724 255.951 69.4724C251.888 69.4724 248.414 70.2588 245.531 71.8317C242.778 73.4045 240.484 75.8949 238.649 79.3028C236.814 82.7107 235.438 87.2326 234.521 92.8687C233.734 98.3738 233.341 105.189 233.341 113.316C233.341 121.311 233.734 128.127 234.521 133.763C235.438 139.268 236.814 143.725 238.649 147.133C240.484 150.54 242.844 153.031 245.727 154.604C248.611 156.045 252.019 156.766 255.951 156.766C264.077 156.766 269.779 153.555 273.056 147.133C276.464 140.579 278.168 129.241 278.168 113.119Z" fill="white"/>
</g>
<defs>
<clipPath id="clip0_106_98">
<rect width="512" height="512" fill="white"/>
</clipPath>
</defs>
</svg>
