<svg width="375" height="375" viewBox="0 0 375 375" fill="none" xmlns="http://www.w3.org/2000/svg">
<g clip-path="url(#clip0_101_2)">
<rect width="375" height="375" fill="white"/>
<rect x="10" y="5.98666" width="355" height="177.027" rx="33.1333" fill="#ED3430"/>
<rect x="10" y="192.987" width="355" height="177.027" rx="33.1333" fill="#154478"/>
<circle cx="187" cy="188" r="29" fill="white"/>
<rect x="170" y="173" width="35" height="8" rx="2" fill="black"/>
<rect x="170" y="184" width="35" height="8" rx="2" fill="black"/>
<rect x="170" y="195" width="35" height="8" rx="2" fill="black"/>
<path d="M187.32 237.232C199.512 237.232 208.68 241.168 214.824 249.04C221.064 256.816 224.184 269.44 224.184 286.912C224.184 295.648 223.416 303.088 221.88 309.232C220.344 315.376 218.04 320.416 214.968 324.352C211.896 328.288 208.056 331.168 203.448 332.992C198.84 334.816 193.464 335.728 187.32 335.728C181.176 335.728 175.8 334.816 171.192 332.992C166.584 331.168 162.744 328.288 159.672 324.352C156.6 320.416 154.296 315.376 152.76 309.232C151.224 303.088 150.456 295.648 150.456 286.912C150.456 280.48 150.936 274.288 151.896 268.336C152.952 262.288 154.824 256.96 157.512 252.352C160.296 247.744 164.04 244.096 168.744 241.408C173.544 238.624 179.736 237.232 187.32 237.232ZM203.736 286.48C203.736 274.672 202.488 266.368 199.992 261.568C197.592 256.864 193.416 254.512 187.464 254.512C184.488 254.512 181.944 255.088 179.832 256.24C177.816 257.392 176.136 259.216 174.792 261.712C173.448 264.208 172.44 267.52 171.768 271.648C171.192 275.68 170.904 280.672 170.904 286.624C170.904 292.48 171.192 297.472 171.768 301.6C172.44 305.632 173.448 308.896 174.792 311.392C176.136 313.888 177.864 315.712 179.976 316.864C182.088 317.92 184.584 318.448 187.464 318.448C193.416 318.448 197.592 316.096 199.992 311.392C202.488 306.592 203.736 298.288 203.736 286.48Z" fill="white"/>
<path d="M187.32 34.232C199.512 34.232 208.68 38.168 214.824 46.04C221.064 53.816 224.184 66.44 224.184 83.912C224.184 92.648 223.416 100.088 221.88 106.232C220.344 112.376 218.04 117.416 214.968 121.352C211.896 125.288 208.056 128.168 203.448 129.992C198.84 131.816 193.464 132.728 187.32 132.728C181.176 132.728 175.8 131.816 171.192 129.992C166.584 128.168 162.744 125.288 159.672 121.352C156.6 117.416 154.296 112.376 152.76 106.232C151.224 100.088 150.456 92.648 150.456 83.912C150.456 77.48 150.936 71.288 151.896 65.336C152.952 59.288 154.824 53.96 157.512 49.352C160.296 44.744 164.04 41.096 168.744 38.408C173.544 35.624 179.736 34.232 187.32 34.232ZM203.736 83.48C203.736 71.672 202.488 63.368 199.992 58.568C197.592 53.864 193.416 51.512 187.464 51.512C184.488 51.512 181.944 52.088 179.832 53.24C177.816 54.392 176.136 56.216 174.792 58.712C173.448 61.208 172.44 64.52 171.768 68.648C171.192 72.68 170.904 77.672 170.904 83.624C170.904 89.48 171.192 94.472 171.768 98.6C172.44 102.632 173.448 105.896 174.792 108.392C176.136 110.888 177.864 112.712 179.976 113.864C182.088 114.92 184.584 115.448 187.464 115.448C193.416 115.448 197.592 113.096 199.992 108.392C202.488 103.592 203.736 95.288 203.736 83.48Z" fill="white"/>
</g>
<defs>
<clipPath id="clip0_101_2">
<rect width="375" height="375" fill="white"/>
</clipPath>
</defs>
</svg>
